# xmcd
#
# Track frame offsets: 
#        150
#        8530
#        19859
#        29957
#        39564
#        46503
#        54546
#        64518
#
# Disc length: 965 seconds
#
# Revision: 0
# Processed by: cddbd v1.5PL3 Copyright (c) Steve Scherf et al.
# Submitted via: ExactAudioCopy v0.95a4
#
DISCID=5c03c308
DTITLE=Ken Mckenzie - Bush Country Music
DYEAR=1900
DGENRE=
TTITLE0=He's alive forever more
TTITLE1=mother's day
TTITLE2=one day the lord will come
TTITLE3=come to me
TTITLE4=australia is my home
TTITLE5=flinder ranges
TTITLE6=port augusta
TTITLE7=some people
EXTD=
EXTT0=
EXTT1=
EXTT2=
EXTT3=
EXTT4=
EXTT5=
EXTT6=
EXTT7=
PLAYORDER=
